# xmcd CD database file
#
# Track frame offsets:
#	150
#	14225
#	28397
#	42665
#	57290
#	71907
#	86292
#	100367
#	114365
#	128507
#	142440
#	156017
#	169557
#	183385
#	197157
#	210692
#
# Disc length: 2988 seconds
#
# Revision: 3
# Processed by: cddbd v1.5.1PL0 Copyright (c) Steve Scherf et al.
# Submitted via: CDex 1.51
#
DISCID=f00baa10
DTITLE=Billie Holiday - All of Me
DYEAR=1997
DGENRE=Jazz
TTITLE0=All of Me
TTITLE1=I'll Get By
TTITLE2=Solitude
TTITLE3=These 'n' That 'n' Those
TTITLE4=If You Were Mine
TTITLE5=Easy to Love
TTITLE6=I Wished on the Moon
TTITLE7=No Good Man
TTITLE8=Mean to Me
TTITLE9=The Man I Love
TTITLE10=What a Little Moonlight Can Do
TTITLE11=You Showed me the Way
TTITLE12=Life begins when you're in love
TTITLE13=Let's Call a Heart a Heart
TTITLE14=The Mood that I'm In
TTITLE15=Now They Call it Swing
EXTD=YEAR: 1997
EXTT0=
EXTT1=
EXTT2=
EXTT3=
EXTT4=
EXTT5=
EXTT6=
EXTT7=
EXTT8=
EXTT9=
EXTT10=
EXTT11=
EXTT12=
EXTT13=
EXTT14=
EXTT15=
PLAYORDER=
